# xmcd
#
# Track frame offsets: 
#        150
#        9078
#        24033
#        36360
#        50621
#        64004
#        79087
#        94679
#        106732
#        119306
#        136422
#        153116
#        165109
#
# Disc length: 2307 seconds
#
# Revision: 0
# Processed by: cddbd v1.5.2PL0 Copyright (c) Steve Scherf et al.
# Submitted via: ExactAudioCopy v1.3
#
DISCID=8809010d
DTITLE=Erin Rae - Soon Enough
DYEAR=1900
DGENRE=Acoustic
TTITLE0=Light pt.1
TTITLE1=Clean Slate
TTITLE2=Minolta
TTITLE3=Soon Enough
TTITLE4=Spitshine
TTITLE5=Monticello
TTITLE6=Panic
TTITLE7=Rose Color
TTITLE8=Owe You One
TTITLE9=Pretty Thing
TTITLE10=Futile Attempt
TTITLE11=Sleep Away
TTITLE12=Ligh pt.2
EXTD=
EXTT0=
EXTT1=
EXTT2=
EXTT3=
EXTT4=
EXTT5=
EXTT6=
EXTT7=
EXTT8=
EXTT9=
EXTT10=
EXTT11=
EXTT12=
PLAYORDER=
